<svg id="Layer_1" data-name="Layer 1" xmlns="http://www.w3.org/2000/svg" viewBox="0 0 146 100.81"><defs><style>.cls-1{fill:#f1f0f0;}</style></defs><path class="cls-1" d="M1122.37,543.2h.36v1.31h-.23v-1h0l-.39,1h-.18l-.39-1h0v1h-.24V543.2h.37l.36.93Zm-2.41.21h.4v1.1h.25v-1.1h.4v-.21h-1Zm-41.89,17.94h4.74V543.2h-4.74Zm0-22.37h4.74V520.84h-4.74Zm16.19,18.14c-2.67,0-4.46-1.94-4.46-4.85s1.79-4.85,4.46-4.85a4.18,4.18,0,0,1,3.67,1.9h4.87c-1.08-3.87-4.11-6.41-8.72-6.41-5.34,0-9.12,3.87-9.12,9.36s3.78,9.32,9.12,9.36c5,0,8.05-2.65,8.86-6.75h-4.79A4.21,4.21,0,0,1,1094.26,557.12Zm18.82-7c-2-.51-3.1-.89-3.1-1.8,0-.71.44-1.56,2.71-1.56s2.93.9,2.93,2h4.56c0-3.08-1.66-5.94-7.49-5.94s-7.61,2.86-7.61,5.53c0,3.33,2.25,4.5,7.2,5.83,2.06.55,3.51,1,3.51,1.83s-1.29,1.61-3.1,1.61c-2.36,0-3.52-1.05-3.52-2.82h-4.59c0,3.73,2.25,6.74,8.11,6.74s8.07-2.43,8.07-5.8S1118.34,551.49,1113.08,550.17Zm-85.61-7h-16.62v4.25h5.41v13.9H1021v-13.9h4.53Zm23.39,13.92c-2.67,0-4.46-1.94-4.46-4.85s1.79-4.85,4.46-4.85a4.19,4.19,0,0,1,3.67,1.9h4.86c-1.07-3.87-4.1-6.41-8.71-6.41-5.34,0-9.12,3.87-9.12,9.36s3.78,9.32,9.12,9.36c5,0,8-2.65,8.86-6.75h-4.8A4.18,4.18,0,0,1,1050.86,557.12Zm52.36-26.81h-4.66c0,3.49-2.35,4.66-4.32,4.66-2.66,0-4.45-1.94-4.45-4.84s1.79-4.84,4.45-4.84a4.19,4.19,0,0,1,3.6,1.78h4.89c-1.09-3.79-4.1-6.28-8.66-6.28-5.34,0-9.11,3.85-9.11,9.34s3.77,9.34,9.11,9.34a9.63,9.63,0,0,0,5.11-1.2l4,.71v-8.67ZM1010.85,539h10.44l1.91-4.25h-7.63V532.1h5.28l1.86-4.15h-7.14v-2.86h7.63v-4.25H993.1l1.91,4.25h5.89v17.22l4.76.89V525.09h6l-.85,1.9Zm12.89,0,7.18-16-.86-2.12h4.13l8.14,18.14h-4.85l-1.24-2.87-7,1.33-.63,1.54Zm7.24-5.84h0l3.66-.7-1.74-4Zm32.5,5.84h4.72V532.1h5.28l1.86-4.15h-7.14v-2.86h7.62v-4.25h-12.34Zm-2.37,8.47h4.54v13.9h4.76v-13.9h5.41V543.2H1059.2Zm55.43-26.61v6.52l-6.12,1.16v-7.68h-4.74V539h4.74v-6.31l6.12-1.16V539h4.74V527.21l-.85-2.12h6.11V543.2l4.76-.85V525.09h5.9l1.9-4.25Zm-68.4,8.91,4,4.83h.34l4.07-4.83V539h4.64V520.84h-2.54l-6.32,7.8-6.17-7.8h-2.72V539h4.66Zm-14,13.45,8.14,18.15h-4.85l-1.23-2.87-7,1.33-.63,1.54h-4.85l7.19-16-.87-2.12Zm.48,11.61-1.74-4-1.94,4.75h0Z" transform="translate(-993.1 -460.82)"/><path class="cls-1" d="M1071.59,501.1h0l-5.49,3.15-18.78-10.86v-6.53a16.83,16.83,0,0,0,2,1.42v3.89h0l13,7.57v-2.69A31.44,31.44,0,0,0,1071.59,501.1Zm16-8.85s4.63,8.43-7.53,8.4a41.08,41.08,0,0,1-13.67-2.61,53.25,53.25,0,0,1-11.66-5.85l.12,0-.12-.08c2.76,1.12,5.32,2,7.67,2.78v-1.69a48.54,48.54,0,0,1-14.58-7.92l0,0a43.35,43.35,0,0,1-3.54-3.16,22,22,0,0,1-1.62-1.77l1.77.35c-2.31-5.17,2.88-7.29,2.91-7.31v-1.76h0l18.78-10.81,18.78,10.92v16.47a17.28,17.28,0,0,1,4.68,4.83Zm-2.67,1.21-5.24,3a13.19,13.19,0,0,1-3.93-.07l7.15-4.12V472.9l-16.76-9.75-16.76,9.65h0v7.91a8.28,8.28,0,0,1-2-3.6.13.13,0,0,0,0,.06v-.05c-.08,0-1.92,1.22.84,5,3.62,5,11.79,9.65,14.2,11V480.26h-8.11l-3-6.68h29.68l-3,6.68h-8.11v16.63c6.79,1.47,11.7,1.05,13.85.28A2.21,2.21,0,0,0,1084.88,493.46Z" transform="translate(-993.1 -460.82)"/></svg>