<svg id="Layer_1" data-name="Layer 1" xmlns="http://www.w3.org/2000/svg" viewBox="0 0 145.93 98.46"><path d="m1017.34 409.84 23.66 29.57a2 2 0 0 0 1.58.76h22.78a.47.47 0 0 0 .37-.77l-48-59.95a.48.48 0 0 0-.85.3v28.82a2 2 0 0 0 .46 1.27Zm73.76-1.26v-28.83a.48.48 0 0 0-.85-.3l-31.52 39.36a.48.48 0 0 0 .37.77h22.78a2 2 0 0 0 1.58-.76l7.2-9a2.07 2.07 0 0 0 .44-1.24Zm27.1 51.95h-5.34a.38.38 0 0 1-.38-.39v-2.86a.38.38 0 0 1 .38-.38h13a1 1 0 0 1 .79.38l2.3 2.86a.24.24 0 0 1-.19.38H1122v16.33a.37.37 0 0 1-.38.38h-3.05a.38.38 0 0 1-.39-.38Zm-131 16.32 15.65-19.57a.23.23 0 0 0-.18-.38h-3.92a1 1 0 0 0-.78.38l-11.11 13.88v-13.88a.38.38 0 0 0-.38-.38h-3.08a.38.38 0 0 0-.38.38v19.57a.38.38 0 0 0 .38.38h3a1 1 0 0 0 .78-.38Zm15.57-6.73-5.38 6.73a1 1 0 0 1-.79.38h-3.92a.23.23 0 0 1-.18-.38l15.35-19.19a2 2 0 0 1 1.58-.76h2.51a.38.38 0 0 1 .38.38v19.57a.38.38 0 0 1-.38.38h-3a1 1 0 0 1-.79-.38Zm2.12-3.05 3.61 4.5v-9Zm73.57-9.79a1 1 0 0 0-.79-.38h-3a.38.38 0 0 0-.38.39v19.56a.38.38 0 0 0 .38.38h3a1 1 0 0 0 .79-.37l5.38-6.74 5.39 6.74a1 1 0 0 0 .79.37h3.92a.23.23 0 0 0 .18-.38Zm3.27 9.79-3.61 4.5v-9Zm-52.43 0a10.69 10.69 0 1 1 10.7 10.67 10.68 10.68 0 0 1-10.72-10.68Zm3.82 0a6.87 6.87 0 1 0 6.87-7 7 7 0 0 0-6.89 6.99Zm72.9-9.78v13.88l-11.11-13.88a1 1 0 0 0-.79-.38h-3a.39.39 0 0 0-.39.38v9.43a1 1 0 0 0 .23.63l3.18 4a.24.24 0 0 0 .42-.15V463l11.11 13.88a1 1 0 0 0 .79.38h3a.38.38 0 0 0 .38-.38v-19.6a.38.38 0 0 0-.38-.38h-3.06a.38.38 0 0 0-.4.38Zm-35.86 0v4.24a1 1 0 0 1-.22.63l-4.82 6 7 8.68a.24.24 0 0 1-.19.38H1068a1 1 0 0 1-.79-.38l-6.76-8.45a.38.38 0 0 1 0-.47l5.92-7.4h-8.77v16.32a.38.38 0 0 1-.38.38h-3.06a.38.38 0 0 1-.38-.38v-19.56a.38.38 0 0 1 .38-.38h15.65a.38.38 0 0 1 .33.38Zm-53.11 20h9.08a1 1 0 0 0 .79-.37l2.29-2.87a.24.24 0 0 0-.19-.38h-8.53v-16.38a.38.38 0 0 0-.38-.39H1017a.39.39 0 0 0-.39.39v19.56a.38.38 0 0 0 .39.38Zm108.1-1.69h.62v1.69h.25v-1.69h.61v-.21h-1.48Zm2.21-.21h-.36v1.9h.24v-1.68l.67 1.68h.14l.68-1.68v1.68h.24v-1.9h-.39l-.6 1.54Z" transform="translate(-983.02 -379.28)" style="fill:#f1f0f0;fill-rule:evenodd"/></svg>